<svg xmlns="http://www.w3.org/2000/svg" width="640" height="360" viewBox="0 0 640 360">
  <rect width="640" height="360" fill="#1e2435"/>
  <rect x="0" y="0" width="640" height="36" fill="#13161f"/>
  <circle cx="18" cy="18" r="6" fill="#e35b5b" opacity=".8"/>
  <circle cx="36" cy="18" r="6" fill="#e3aa5b" opacity=".8"/>
  <circle cx="54" cy="18" r="6" fill="#4caf7d" opacity=".8"/>
  <rect x="80" y="8" width="440" height="20" rx="4" fill="#272d3f"/>
  <text x="300" y="22" font-family="monospace" font-size="11" fill="#7a8099" text-anchor="middle">https://docka.example.com/forum/topic/382</text>
  <!-- thread -->
  <rect x="24" y="52" width="592" height="30" rx="5" fill="#272d3f"/>
  <text x="36" y="72" font-family="sans-serif" font-size="13" fill="#d4d8e8" font-weight="600">Тема: Общее обсуждение правил</text>
  <!-- replies -->
  <rect x="24" y="92" width="440" height="28" rx="5" fill="#272d3f"/>
  <text x="36" y="111" font-family="monospace" font-size="12" fill="#d4d8e8">member_a: всё понял, спасибо за объяснение</text>
  <rect x="24" y="130" width="380" height="28" rx="5" fill="#272d3f"/>
  <text x="36" y="149" font-family="monospace" font-size="12" fill="#d4d8e8">member_b: поддерживаю решение</text>
  <!-- violation -->
  <rect x="20" y="168" width="600" height="48" rx="6" fill="rgba(227,170,91,0.15)" stroke="#e3aa5b" stroke-width="1.5"/>
  <text x="36" y="188" font-family="monospace" font-size="12" fill="#e3aa5b" font-weight="bold">nick_three: [НАРУШЕНИЕ п.2.4 — провокация и оффтоп]</text>
  <text x="36" y="206" font-family="monospace" font-size="11" fill="#7a8099">повторное нарушение в течение 7 дней</text>
  <!-- arrow -->
  <line x1="570" y1="192" x2="620" y2="160" stroke="#e3aa5b" stroke-width="2" stroke-dasharray="4 3"/>
  <text x="575" y="152" font-family="sans-serif" font-size="11" fill="#e3aa5b">повтор</text>
  <text x="24" y="340" font-family="monospace" font-size="11" fill="#7a8099">Зафиксировано: 2026-05-10 14:02 UTC</text>
</svg>
