<svg xmlns="http://www.w3.org/2000/svg" width="640" height="360" viewBox="0 0 640 360">
  <rect width="640" height="360" fill="#1e2435"/>
  <rect x="0" y="0" width="640" height="36" fill="#13161f"/>
  <circle cx="18" cy="18" r="6" fill="#e35b5b" opacity=".8"/>
  <circle cx="36" cy="18" r="6" fill="#e3aa5b" opacity=".8"/>
  <circle cx="54" cy="18" r="6" fill="#4caf7d" opacity=".8"/>
  <rect x="80" y="8" width="440" height="20" rx="4" fill="#272d3f"/>
  <text x="300" y="22" font-family="monospace" font-size="11" fill="#7a8099" text-anchor="middle">https://docka.example.com/profile/user2</text>
  <!-- profile header -->
  <rect x="24" y="52" width="592" height="80" rx="8" fill="#272d3f"/>
  <circle cx="72" cy="92" r="28" fill="#1e2435" stroke="#3a4060" stroke-width="2"/>
  <text x="72" y="97" font-family="sans-serif" font-size="18" fill="#e35b5b" text-anchor="middle" font-weight="bold">U</text>
  <text x="112" y="82" font-family="sans-serif" font-size="15" fill="#d4d8e8" font-weight="600">user_two</text>
  <text x="112" y="100" font-family="sans-serif" font-size="12" fill="#7a8099">Регистрация: 2025-11-03</text>
  <!-- fake post with highlight -->
  <rect x="24" y="148" width="592" height="60" rx="6" fill="#272d3f"/>
  <text x="36" y="170" font-family="sans-serif" font-size="12" fill="#7a8099">2026-03-28 · Пост №1847</text>
  <rect x="20" y="188" width="600" height="32" rx="5" fill="rgba(227,91,91,0.18)" stroke="#e35b5b" stroke-width="1.5"/>
  <text x="36" y="209" font-family="monospace" font-size="12" fill="#e35b5b">[НАРУШЕНИЕ п.5.2 — публикация запрещённого контента]</text>
  <!-- annotation -->
  <line x1="560" y1="204" x2="610" y2="240" stroke="#e35b5b" stroke-width="2" stroke-dasharray="4 3"/>
  <text x="568" y="256" font-family="sans-serif" font-size="11" fill="#e35b5b">зафиксировано</text>
  <text x="24" y="340" font-family="monospace" font-size="11" fill="#7a8099">Зафиксировано: 2026-03-28 09:17 UTC</text>
</svg>
